<svg xmlns="http://www.w3.org/2000/svg" xmlns:xlink="http://www.w3.org/1999/xlink" viewBox="0 0 864 636" id="lottie-comp-m3q3kbzk" preserveAspectRatio="xMidYMid meet" role="img"><defs><clipPath id="__lottie_element_389"><rect width="864" height="636" x="0" y="0"></rect></clipPath><clipPath id="__lottie_element_391"><path d="M0,0 L1920,0 L1920,1080 L0,1080z"></path></clipPath><clipPath id="__lottie_element_392"><path fill="#ffffff" clip-rule="nonzero" d=" M701.5,407 C701.5,407 593,407 593,407 C593,407 593,507.5 593,507.5 C593,507.5 701.5,507.5 701.5,507.5 C701.5,507.5 701.5,407 701.5,407" fill-opacity="1"></path></clipPath><g id="__lottie_element_394"><g transform="matrix(1.5,0,0,1.5,607.708984375,415.85198974609375)" opacity="1" style="display: block;"><g opacity="1" transform="matrix(1,0,0,1,27.25,27.25)"><path fill="rgb(255,255,255)" fill-opacity="1" d=" M-27,-17 C-27,-22.52199935913086 -22.523000717163086,-27 -17,-27 C-17,-27 17,-27 17,-27 C22.523000717163086,-27 27,-22.52199935913086 27,-17 C27,-17 27,17 27,17 C27,22.523000717163086 22.523000717163086,27 17,27 C17,27 -17,27 -17,27 C-22.523000717163086,27 -27,22.523000717163086 -27,17 C-27,17 -27,-17 -27,-17z"></path></g></g></g><mask id="__lottie_element_394_1" mask-type="alpha"><use xlink:href="#__lottie_element_394"></use></mask><clipPath id="__lottie_element_404"><path d="M0,0 L1920,0 L1920,1080 L0,1080z"></path></clipPath><clipPath id="__lottie_element_405"><path fill="#ffffff" clip-rule="nonzero" d=" M701.5,508.5 C701.5,508.5 593,508.5 593,508.5 C593,508.5 593,609 593,609 C593,609 701.5,609 701.5,609 C701.5,609 701.5,508.5 701.5,508.5" fill-opacity="1"></path></clipPath><g id="__lottie_element_407"><g transform="matrix(1.5,0,0,1.5,607.708984375,517.8519897460938)" opacity="1" style="display: block;"><g opacity="1" transform="matrix(1,0,0,1,27.25,27.25)"><path fill="rgb(255,255,255)" fill-opacity="1" d=" M-27,-17 C-27,-22.52199935913086 -22.523000717163086,-27 -17,-27 C-17,-27 17,-27 17,-27 C22.523000717163086,-27 27,-22.52199935913086 27,-17 C27,-17 27,17 27,17 C27,22.523000717163086 22.523000717163086,27 17,27 C17,27 -17,27 -17,27 C-22.523000717163086,27 -27,22.523000717163086 -27,17 C-27,17 -27,-17 -27,-17z"></path></g></g></g><mask id="__lottie_element_407_1" mask-type="alpha"><use xlink:href="#__lottie_element_407"></use></mask><clipPath id="__lottie_element_417"><path d="M0,0 L1920,0 L1920,1080 L0,1080z"></path></clipPath><clipPath id="__lottie_element_418"><path fill="#ffffff" clip-rule="nonzero" d=" M701.5,610.5 C701.5,610.5 593,610.5 593,610.5 C593,610.5 593,711 593,711 C593,711 701.5,711 701.5,711 C701.5,711 701.5,610.5 701.5,610.5" fill-opacity="1"></path></clipPath><g id="__lottie_element_420"><g transform="matrix(1.5,0,0,1.5,607.708984375,619.8519897460938)" opacity="1" style="display: block;"><g opacity="1" transform="matrix(1,0,0,1,27.25,27.25)"><path fill="rgb(255,255,255)" fill-opacity="1" d=" M-27,-17 C-27,-22.52199935913086 -22.523000717163086,-27 -17,-27 C-17,-27 17,-27 17,-27 C22.523000717163086,-27 27,-22.52199935913086 27,-17 C27,-17 27,17 27,17 C27,22.523000717163086 22.523000717163086,27 17,27 C17,27 -17,27 -17,27 C-22.523000717163086,27 -27,22.523000717163086 -27,17 C-27,17 -27,-17 -27,-17z"></path></g></g></g><mask id="__lottie_element_420_1" mask-type="alpha"><use xlink:href="#__lottie_element_420"></use></mask><filter id="__lottie_element_431" x="-100%" y="-100%" width="300%" height="300%"><feGaussianBlur result="filter_result_0" stdDeviation="22.5 22.5" edgeMode="duplicate"></feGaussianBlur></filter><filter id="__lottie_element_434" x="-100%" y="-100%" width="300%" height="300%"><feGaussianBlur result="filter_result_0" stdDeviation="22.5 22.5" edgeMode="duplicate"></feGaussianBlur></filter><filter id="__lottie_element_437" x="-100%" y="-100%" width="300%" height="300%"><feGaussianBlur result="filter_result_0" stdDeviation="22.5 22.5" edgeMode="duplicate"></feGaussianBlur></filter><clipPath id="__lottie_element_439"><path d="M0,0 L1920,0 L1920,1080 L0,1080z"></path></clipPath><clipPath id="__lottie_element_440"><path fill="#ffffff" clip-rule="nonzero" d=" M950.25,369.25 C950.25,369.25 762.75,369.25 762.75,369.25 C762.75,369.25 762.75,409.5 762.75,409.5 C762.75,409.5 950.25,409.5 950.25,409.5 C950.25,409.5 950.25,369.25 950.25,369.25"></path></clipPath><clipPath id="__lottie_element_446"><path d="M0,0 L1920,0 L1920,1080 L0,1080z"></path></clipPath><clipPath id="__lottie_element_447"><path fill="#ffffff" clip-rule="nonzero" d=" M950.25,369.25 C950.25,369.25 762.75,369.25 762.75,369.25 C762.75,369.25 762.75,409.5 762.75,409.5 C762.75,409.5 950.25,409.5 950.25,409.5 C950.25,409.5 950.25,369.25 950.25,369.25"></path></clipPath><clipPath id="__lottie_element_453"><path d="M0,0 L1920,0 L1920,1080 L0,1080z"></path></clipPath><clipPath id="__lottie_element_454"><path fill="#ffffff" clip-rule="nonzero" d=" M950,419.5 C950,419.5 760.25,419.5 760.25,419.5 C760.25,419.5 760.25,459.75 760.25,459.75 C760.25,459.75 950,459.75 950,459.75 C950,459.75 950,419.5 950,419.5"></path></clipPath><clipPath id="__lottie_element_460"><path d="M0,0 L1920,0 L1920,1080 L0,1080z"></path></clipPath><clipPath id="__lottie_element_461"><path fill="#ffffff" clip-rule="nonzero" d=" M950,419.5 C950,419.5 760.25,419.5 760.25,419.5 C760.25,419.5 760.25,459.75 760.25,459.75 C760.25,459.75 950,459.75 950,459.75 C950,459.75 950,419.5 950,419.5"></path></clipPath><clipPath id="__lottie_element_467"><path d="M0,0 L1920,0 L1920,1080 L0,1080z"></path></clipPath><clipPath id="__lottie_element_468"><path fill="#ffffff" clip-rule="nonzero" d=" M952.5,474 C952.5,474 758.25,474 758.25,474 C758.25,474 758.25,515.5 758.25,515.5 C758.25,515.5 952.5,515.5 952.5,515.5 C952.5,515.5 952.5,474 952.5,474"></path></clipPath><clipPath id="__lottie_element_474"><path d="M0,0 L1920,0 L1920,1080 L0,1080z"></path></clipPath><clipPath id="__lottie_element_475"><path fill="#ffffff" clip-rule="nonzero" d=" M952.5,474 C952.5,474 758.25,474 758.25,474 C758.25,474 758.25,515.5 758.25,515.5 C758.25,515.5 952.5,515.5 952.5,515.5 C952.5,515.5 952.5,474 952.5,474"></path></clipPath><clipPath id="__lottie_element_481"><path d="M0,0 L1920,0 L1920,1080 L0,1080z"></path></clipPath><clipPath id="__lottie_element_482"><path fill="#ffffff" clip-rule="nonzero" d=" M951.25,524.25 C951.25,524.25 758.5,524.25 758.5,524.25 C758.5,524.25 758.5,562.75 758.5,562.75 C758.5,562.75 951.25,562.75 951.25,562.75 C951.25,562.75 951.25,524.25 951.25,524.25"></path></clipPath><clipPath id="__lottie_element_488"><path d="M0,0 L1920,0 L1920,1080 L0,1080z"></path></clipPath><clipPath id="__lottie_element_489"><path fill="#ffffff" clip-rule="nonzero" d=" M951.25,524.25 C951.25,524.25 758.5,524.25 758.5,524.25 C758.5,524.25 758.5,562.75 758.5,562.75 C758.5,562.75 951.25,562.75 951.25,562.75 C951.25,562.75 951.25,524.25 951.25,524.25"></path></clipPath><clipPath id="__lottie_element_495"><path d="M0,0 L1920,0 L1920,1080 L0,1080z"></path></clipPath><clipPath id="__lottie_element_496"><path fill="#ffffff" clip-rule="nonzero" d=" M950.25,369.25 C950.25,369.25 762.75,369.25 762.75,369.25 C762.75,369.25 762.75,409.5 762.75,409.5 C762.75,409.5 950.25,409.5 950.25,409.5 C950.25,409.5 950.25,369.25 950.25,369.25"></path></clipPath><clipPath id="__lottie_element_502"><path d="M0,0 L1920,0 L1920,1080 L0,1080z"></path></clipPath><clipPath id="__lottie_element_503"><path fill="#ffffff" clip-rule="nonzero" d=" M950,419.5 C950,419.5 760.25,419.5 760.25,419.5 C760.25,419.5 760.25,459.75 760.25,459.75 C760.25,459.75 950,459.75 950,459.75 C950,459.75 950,419.5 950,419.5"></path></clipPath><clipPath id="__lottie_element_509"><path d="M0,0 L1920,0 L1920,1080 L0,1080z"></path></clipPath><clipPath id="__lottie_element_510"><path fill="#ffffff" clip-rule="nonzero" d=" M952.5,474 C952.5,474 758.25,474 758.25,474 C758.25,474 758.25,515.5 758.25,515.5 C758.25,515.5 952.5,515.5 952.5,515.5 C952.5,515.5 952.5,474 952.5,474"></path></clipPath><clipPath id="__lottie_element_516"><path d="M0,0 L1920,0 L1920,1080 L0,1080z"></path></clipPath><clipPath id="__lottie_element_517"><path fill="#ffffff" clip-rule="nonzero" d=" M951.25,524.25 C951.25,524.25 758.5,524.25 758.5,524.25 C758.5,524.25 758.5,562.75 758.5,562.75 C758.5,562.75 951.25,562.75 951.25,562.75 C951.25,562.75 951.25,524.25 951.25,524.25"></path></clipPath><clipPath id="__lottie_element_523"><path d="M0,0 L1920,0 L1920,1080 L0,1080z"></path></clipPath><clipPath id="__lottie_element_524"><path fill="#ffffff" clip-rule="nonzero" d=" M950.25,369.25 C950.25,369.25 762.75,369.25 762.75,369.25 C762.75,369.25 762.75,409.5 762.75,409.5 C762.75,409.5 950.25,409.5 950.25,409.5 C950.25,409.5 950.25,369.25 950.25,369.25" fill-opacity="1"></path></clipPath><clipPath id="__lottie_element_530"><path d="M0,0 L1920,0 L1920,1080 L0,1080z"></path></clipPath><clipPath id="__lottie_element_531"><path fill="#ffffff" clip-rule="nonzero" d=" M950,419.5 C950,419.5 760.25,419.5 760.25,419.5 C760.25,419.5 760.25,459.75 760.25,459.75 C760.25,459.75 950,459.75 950,459.75 C950,459.75 950,419.5 950,419.5" fill-opacity="1"></path></clipPath><clipPath id="__lottie_element_537"><path d="M0,0 L1920,0 L1920,1080 L0,1080z"></path></clipPath><clipPath id="__lottie_element_538"><path fill="#ffffff" clip-rule="nonzero" d=" M952.5,474 C952.5,474 758.25,474 758.25,474 C758.25,474 758.25,515.5 758.25,515.5 C758.25,515.5 952.5,515.5 952.5,515.5 C952.5,515.5 952.5,474 952.5,474" fill-opacity="1"></path></clipPath><clipPath id="__lottie_element_544"><path d="M0,0 L1920,0 L1920,1080 L0,1080z"></path></clipPath><clipPath id="__lottie_element_545"><path fill="#ffffff" clip-rule="nonzero" d=" M951.25,524.25 C951.25,524.25 758.5,524.25 758.5,524.25 C758.5,524.25 758.5,562.75 758.5,562.75 C758.5,562.75 951.25,562.75 951.25,562.75 C951.25,562.75 951.25,524.25 951.25,524.25" fill-opacity="1"></path></clipPath><filter id="__lottie_element_552" x="-100%" y="-100%" width="300%" height="300%"><feGaussianBlur result="filter_result_0" stdDeviation="30 30" edgeMode="duplicate"></feGaussianBlur></filter><clipPath id="__lottie_element_581"><path d="M0,0 L1920,0 L1920,1080 L0,1080z"></path></clipPath><filter id="__lottie_element_607" x="-100%" y="-100%" width="300%" height="300%"><feGaussianBlur result="filter_result_0" stdDeviation="30 30" edgeMode="duplicate"></feGaussianBlur></filter><filter id="__lottie_element_619" x="-100%" y="-100%" width="300%" height="300%"><feGaussianBlur result="filter_result_0"></feGaussianBlur></filter></defs><g clip-path="url(#__lottie_element_389)"><g filter="url(#__lottie_element_619)" style="display: none;"><g><path></path></g></g><g transform="matrix(0.6652100086212158,0,0,0.6652100086212158,466.75201416015625,311.87200927734375)" opacity="1" style="display: block;"><g opacity="1" transform="matrix(1,0,0,1,-4.5,-19.75)"><path fill="rgb(235,235,235)" fill-opacity="1" d=" M404,-229.48049926757812 C404,-229.48049926757812 404,229.48049926757812 404,229.48049926757812 C404,250.45269775390625 386.9721984863281,267.4804992675781 366,267.4804992675781 C366,267.4804992675781 -366,267.4804992675781 -366,267.4804992675781 C-386.9721984863281,267.4804992675781 -404,250.45269775390625 -404,229.48049926757812 C-404,229.48049926757812 -404,-229.48049926757812 -404,-229.48049926757812 C-404,-250.45269775390625 -386.9721984863281,-267.4804992675781 -366,-267.4804992675781 C-366,-267.4804992675781 366,-267.4804992675781 366,-267.4804992675781 C386.9721984863281,-267.4804992675781 404,-250.45269775390625 404,-229.48049926757812z"></path><path stroke-linecap="butt" stroke-linejoin="miter" fill-opacity="0" stroke-miterlimit="4" stroke="rgb(168,234,6)" stroke-opacity="1" stroke-width="0" d=" M404,-229.48049926757812 C404,-229.48049926757812 404,229.48049926757812 404,229.48049926757812 C404,250.45269775390625 386.9721984863281,267.4804992675781 366,267.4804992675781 C366,267.4804992675781 -366,267.4804992675781 -366,267.4804992675781 C-386.9721984863281,267.4804992675781 -404,250.45269775390625 -404,229.48049926757812 C-404,229.48049926757812 -404,-229.48049926757812 -404,-229.48049926757812 C-404,-250.45269775390625 -386.9721984863281,-267.4804992675781 -366,-267.4804992675781 C-366,-267.4804992675781 366,-267.4804992675781 366,-267.4804992675781 C386.9721984863281,-267.4804992675781 404,-250.45269775390625 404,-229.48049926757812z"></path></g></g><g transform="matrix(0.6652100086212158,0,0,0.6652100086212158,466.75201416015625,311.87200927734375)" opacity="1" style="display: block;"><g opacity="1" transform="matrix(1,0,0,1,-4.5,-19.75)"><path fill="rgb(255,255,255)" fill-opacity="1" d=" M396,-229.75 C396,-229.75 396,229.75 396,229.75 C396,245.2032012939453 383.45318603515625,257.75 368,257.75 C368,257.75 -368,257.75 -368,257.75 C-383.45318603515625,257.75 -396,245.2032012939453 -396,229.75 C-396,229.75 -396,-229.75 -396,-229.75 C-396,-245.2032012939453 -383.45318603515625,-257.75 -368,-257.75 C-368,-257.75 368,-257.75 368,-257.75 C383.45318603515625,-257.75 396,-245.2032012939453 396,-229.75z"></path><path stroke-linecap="butt" stroke-linejoin="miter" fill-opacity="0" stroke-miterlimit="4" stroke="rgb(168,234,6)" stroke-opacity="1" stroke-width="0" d=" M396,-229.75 C396,-229.75 396,229.75 396,229.75 C396,245.2032012939453 383.45318603515625,257.75 368,257.75 C368,257.75 -368,257.75 -368,257.75 C-383.45318603515625,257.75 -396,245.2032012939453 -396,229.75 C-396,229.75 -396,-229.75 -396,-229.75 C-396,-245.2032012939453 -383.45318603515625,-257.75 -368,-257.75 C-368,-257.75 368,-257.75 368,-257.75 C383.45318603515625,-257.75 396,-245.2032012939453 396,-229.75z"></path></g></g><g transform="matrix(0.9978100061416626,0,0,0.9978100061416626,142.57122802734375,80.04176330566406)" opacity="1" style="display: block;"><g opacity="1" transform="matrix(1,0,0,1,322.031005859375,61.32500076293945)"><path fill="rgb(0,0,0)" fill-opacity="1" d=" M-264.5,6.913000106811523 C-264.5,-4.913000106811523 -254.91299438476562,-14.5 -243.08700561523438,-14.5 C-243.08700561523438,-14.5 243.08700561523438,-14.5 243.08700561523438,-14.5 C254.91400146484375,-14.5 264.5,-4.913000106811523 264.5,6.913000106811523 C264.5,6.913000106811523 264.5,14.5 264.5,14.5 C264.5,14.5 -264.5,14.5 -264.5,14.5 C-264.5,14.5 -264.5,6.913000106811523 -264.5,6.913000106811523z"></path></g></g><g clip-path="url(#__lottie_element_581)" style="display: block;" transform="matrix(0.6652100086212158,0,0,0.6652100086212158,-172.5986328125,-39.3583984375)" opacity="0.999999893731701"><g filter="url(#__lottie_element_607)" style="display: block;" transform="matrix(1.2499949932098389,0,0,1.2499949932098389,835.1987915039062,589.59033203125)" opacity="0.1"><g opacity="1" transform="matrix(1,0,0,1,13.720000267028809,688.125)"><path fill="rgb(127,127,127)" fill-opacity="1" d=" M-13.718999862670898,-457.91400146484375 C-13.718999862670898,-457.91400146484375 388.4989929199219,-457.91400146484375 388.4989929199219,-457.91400146484375 C388.4989929199219,-457.91400146484375 388.4989929199219,-688.1229858398438 388.4989929199219,-688.1229858398438 C388.4989929199219,-688.1229858398438 -13.718999862670898,-688.1229858398438 -13.718999862670898,-688.1229858398438 C-13.718999862670898,-688.1229858398438 -13.718999862670898,-457.91400146484375 -13.718999862670898,-457.91400146484375z"></path></g></g><g style="display: block;" transform="matrix(1.5,0,0,1.5,784.9205322265625,560.8134765625)" opacity="1"><g opacity="1" transform="matrix(1,0,0,1,201.11000061035156,107.60900115966797)"><path fill="rgb(255,255,255)" fill-opacity="1" d=" M-154,-58 C-154,-63.52199935913086 -149.5229949951172,-68 -144,-68 C-144,-68 144,-68 144,-68 C149.52200317382812,-68 154,-63.52199935913086 154,-58 C154,-58 154,58 154,58 C154,63.52299880981445 149.52200317382812,68 144,68 C144,68 -144,68 -144,68 C-149.5229949951172,68 -154,63.52299880981445 -154,58 C-154,58 -154,-58 -154,-58z"></path></g></g><g style="display: block;" transform="matrix(1.5,0,0,1.5,894.2105102539062,742.8519897460938)" opacity="1"><g opacity="1" transform="matrix(1,0,0,1,80.25,3.25)"><path fill="rgb(213,217,228)" fill-opacity="1" d=" M-80,0 C-80,-1.656999945640564 -78.65699768066406,-3 -77,-3 C-77,-3 77,-3 77,-3 C78.65599822998047,-3 80,-1.656999945640564 80,0 C80,1.656999945640564 78.65599822998047,3 77,3 C77,3 -77,3 -77,3 C-78.65699768066406,3 -80,1.656999945640564 -80,0z"></path></g><g opacity="1" transform="matrix(1,0,0,1,53.75,18.25)"><path fill="rgb(230,235,246)" fill-opacity="1" d=" M-53.5,0 C-53.5,-1.656999945640564 -52.15700149536133,-3 -50.5,-3 C-50.5,-3 50.5,-3 50.5,-3 C52.15599822998047,-3 53.5,-1.656999945640564 53.5,0 C53.5,1.656999945640564 52.15599822998047,3 50.5,3 C50.5,3 -50.5,3 -50.5,3 C-52.15700149536133,3 -53.5,1.656999945640564 -53.5,0z"></path></g></g><g style="display: block;" transform="matrix(1.5,0,0,1.5,894.2105102539062,657.3519897460938)" opacity="1"><g opacity="1" transform="matrix(1,0,0,1,64.25,3.25)"><path fill="rgb(213,217,228)" fill-opacity="1" d=" M-64,0 C-64,-1.656999945640564 -62.65700149536133,-3 -61,-3 C-61,-3 61,-3 61,-3 C62.65599822998047,-3 64,-1.656999945640564 64,0 C64,1.656999945640564 62.65599822998047,3 61,3 C61,3 -61,3 -61,3 C-62.65700149536133,3 -64,1.656999945640564 -64,0z"></path></g><g opacity="1" transform="matrix(1,0,0,1,43.07500076293945,18.450000762939453)"><path fill="rgb(230,235,246)" fill-opacity="1" d=" M-42.82400131225586,0 C-42.82400131225586,-1.7730000019073486 -41.38800048828125,-3.2119998931884766 -39.612998962402344,-3.2119998931884766 C-39.612998962402344,-3.2119998931884766 39.612998962402344,-3.2119998931884766 39.612998962402344,-3.2119998931884766 C41.38600158691406,-3.2119998931884766 42.82400131225586,-1.7730000019073486 42.82400131225586,0 C42.82400131225586,1.7740000486373901 41.38600158691406,3.2119998931884766 39.612998962402344,3.2119998931884766 C39.612998962402344,3.2119998931884766 -39.612998962402344,3.2119998931884766 -39.612998962402344,3.2119998931884766 C-41.38800048828125,3.2119998931884766 -42.82400131225586,1.7740000486373901 -42.82400131225586,0z"></path></g></g><g style="display: block;" transform="matrix(1.5,0,0,1.5,1221.21044921875,737.10546875)" opacity="1"><g opacity="1" transform="matrix(1,0,0,1,12.75,12.75)"><path fill="rgb(168,234,6)" fill-opacity="1" d=" M0,12.5 C6.9029998779296875,12.5 12.5,6.9029998779296875 12.5,0 C12.5,-6.9039998054504395 6.9029998779296875,-12.5 0,-12.5 C-6.9039998054504395,-12.5 -12.5,-6.9039998054504395 -12.5,0 C-12.5,6.9029998779296875 -6.9039998054504395,12.5 0,12.5z"></path></g></g><g style="display: block;" transform="matrix(1.0017000436782837,0,0,1.0017000436782837,959.7860107421875,629.9244995117188)" opacity="1"><g opacity="1" transform="matrix(1,0,0,1,0,0)"><path stroke-linecap="round" stroke-linejoin="round" fill-opacity="0" stroke="rgb(255,255,255)" stroke-opacity="1" stroke-width="4" d=" M270.68798828125,125.75 C270.68798828125,125.75 276.93798828125,132.25 276.93798828125,132.25 C276.93798828125,132.25 289.125,120.18800354003906 289.125,120.18800354003906"></path></g></g><g style="display: block;" transform="matrix(1.5,0,0,1.5,1221.21044921875,646.8534545898438)" opacity="1"><g opacity="1" transform="matrix(1,0,0,1,12.75,12.75)"><path fill="rgb(0,0,0)" fill-opacity="1" d=" M0,12.5 C6.9029998779296875,12.5 12.5,6.9029998779296875 12.5,0 C12.5,-6.9039998054504395 6.9029998779296875,-12.5 0,-12.5 C-6.9039998054504395,-12.5 -12.5,-6.9039998054504395 -12.5,0 C-12.5,6.9029998779296875 -6.9039998054504395,12.5 0,12.5z"></path></g></g><g style="display: block;" transform="matrix(1.0017000436782837,0,0,1.0017000436782837,959.7860107421875,539.6724853515625)" opacity="1"><g opacity="1" transform="matrix(1,0,0,1,0,0)"><path stroke-linecap="round" stroke-linejoin="round" fill-opacity="0" stroke="rgb(255,255,255)" stroke-opacity="1" stroke-width="4" d=" M270.68798828125,125.75 C270.68798828125,125.75 276.93798828125,132.25 276.93798828125,132.25 C276.93798828125,132.25 289.125,120.18800354003906 289.125,120.18800354003906"></path></g></g></g><g transform="matrix(0.9978100061416626,0,0,0.9978100061416626,218.68577575683594,137.4903106689453)" opacity="1" style="display: block;"><g opacity="1" transform="matrix(1,0,0,1,4.25,4.25)"><path fill="rgb(255,255,255)" fill-opacity="1" d=" M4,0 C4,2.2100000381469727 2.2090001106262207,4 0,4 C-2.2090001106262207,4 -4,2.2100000381469727 -4,0 C-4,-2.2090001106262207 -2.2090001106262207,-4 0,-4 C2.2090001106262207,-4 4,-2.2090001106262207 4,0z"></path></g><g opacity="1" transform="matrix(1,0,0,1,17.25,4.25)"><path fill="rgb(255,255,255)" fill-opacity="1" d=" M4,0 C4,2.2100000381469727 2.2090001106262207,4 0,4 C-2.2090001106262207,4 -4,2.2100000381469727 -4,0 C-4,-2.2090001106262207 -2.2090001106262207,-4 0,-4 C2.2090001106262207,-4 4,-2.2090001106262207 4,0z"></path></g><g opacity="1" transform="matrix(1,0,0,1,30.250999450683594,4.25)"><path fill="rgb(255,255,255)" fill-opacity="1" d=" M4,0 C4,2.2100000381469727 2.2090001106262207,4 0,4 C-2.2100000381469727,4 -4,2.2100000381469727 -4,0 C-4,-2.2090001106262207 -2.2100000381469727,-4 0,-4 C2.2090001106262207,-4 4,-2.2090001106262207 4,0z"></path></g></g><g style="display: block;" transform="matrix(0.9978100061416626,0,0,0.9978100061416626,521.0217895507812,180.39590454101562)" opacity="1"><g opacity="1" transform="matrix(1,0,0,1,32.75,97.25)"><path fill="rgb(213,217,228)" fill-opacity="1" d=" M-32.5,0 C-32.5,-1.656000018119812 -31.156999588012695,-3 -29.5,-3 C-29.5,-3 29.5,-3 29.5,-3 C31.1560001373291,-3 32.5,-1.656000018119812 32.5,0 C32.5,1.656999945640564 31.1560001373291,3 29.5,3 C29.5,3 -29.5,3 -29.5,3 C-31.156999588012695,3 -32.5,1.656999945640564 -32.5,0z"></path></g><g opacity="1" transform="matrix(1,0,0,1,64.75,112.25)"><path fill="rgb(230,235,246)" fill-opacity="1" d=" M-64.5,0 C-64.5,-1.656000018119812 -63.15700149536133,-3 -61.5,-3 C-61.5,-3 61.5,-3 61.5,-3 C63.15599822998047,-3 64.5,-1.656000018119812 64.5,0 C64.5,1.656999945640564 63.15599822998047,3 61.5,3 C61.5,3 -61.5,3 -61.5,3 C-63.15700149536133,3 -64.5,1.656999945640564 -64.5,0z"></path></g><g opacity="1" transform="matrix(1,0,0,1,64.75,127.25)"><path fill="rgb(230,235,246)" fill-opacity="1" d=" M-64.5,0 C-64.5,-1.656000018119812 -63.15700149536133,-3 -61.5,-3 C-61.5,-3 61.5,-3 61.5,-3 C63.15599822998047,-3 64.5,-1.656000018119812 64.5,0 C64.5,1.656999945640564 63.15599822998047,3 61.5,3 C61.5,3 -61.5,3 -61.5,3 C-63.15700149536133,3 -64.5,1.656999945640564 -64.5,0z"></path></g></g><g style="display: block;" transform="matrix(0.9978100061416626,0,0,0.9978100061416626,521.0217895507812,180.39590454101562)" opacity="0.9999995998824079"><g opacity="1" transform="matrix(1,0,0,1,32.75,51.25)"><path fill="rgb(213,217,228)" fill-opacity="1" d=" M-32.5,0 C-32.5,-1.656000018119812 -31.156999588012695,-3 -29.5,-3 C-29.5,-3 29.5,-3 29.5,-3 C31.1560001373291,-3 32.5,-1.656000018119812 32.5,0 C32.5,1.656999945640564 31.1560001373291,3 29.5,3 C29.5,3 -29.5,3 -29.5,3 C-31.156999588012695,3 -32.5,1.656999945640564 -32.5,0z"></path></g><g opacity="1" transform="matrix(1,0,0,1,64.75,66.25)"><path fill="rgb(230,235,246)" fill-opacity="1" d=" M-64.5,0 C-64.5,-1.656000018119812 -63.15700149536133,-3 -61.5,-3 C-61.5,-3 61.5,-3 61.5,-3 C63.15599822998047,-3 64.5,-1.656000018119812 64.5,0 C64.5,1.656999945640564 63.15599822998047,3 61.5,3 C61.5,3 -61.5,3 -61.5,3 C-63.15700149536133,3 -64.5,1.656999945640564 -64.5,0z"></path></g><g opacity="1" transform="matrix(1,0,0,1,64.75,81.25)"><path fill="rgb(230,235,246)" fill-opacity="1" d=" M-64.5,0 C-64.5,-1.656000018119812 -63.15700149536133,-3 -61.5,-3 C-61.5,-3 61.5,-3 61.5,-3 C63.15599822998047,-3 64.5,-1.656000018119812 64.5,0 C64.5,1.656999945640564 63.15599822998047,3 61.5,3 C61.5,3 -61.5,3 -61.5,3 C-63.15700149536133,3 -64.5,1.656999945640564 -64.5,0z"></path></g></g><g style="display: block;" transform="matrix(0.9978100061416626,0,0,0.9978100061416626,521.0217895507812,180.39590454101562)" opacity="1"><g opacity="1" transform="matrix(1,0,0,1,32.75,3.25)"><path fill="rgb(213,217,228)" fill-opacity="1" d=" M-32.5,0 C-32.5,-1.656000018119812 -31.156999588012695,-3 -29.5,-3 C-29.5,-3 29.5,-3 29.5,-3 C31.1560001373291,-3 32.5,-1.656000018119812 32.5,0 C32.5,1.656999945640564 31.1560001373291,3 29.5,3 C29.5,3 -29.5,3 -29.5,3 C-31.156999588012695,3 -32.5,1.656999945640564 -32.5,0z"></path></g><g opacity="1" transform="matrix(1,0,0,1,64.75,18.25)"><path fill="rgb(230,235,246)" fill-opacity="1" d=" M-64.5,0 C-64.5,-1.656000018119812 -63.15700149536133,-3 -61.5,-3 C-61.5,-3 61.5,-3 61.5,-3 C63.15599822998047,-3 64.5,-1.656000018119812 64.5,0 C64.5,1.656999945640564 63.15599822998047,3 61.5,3 C61.5,3 -61.5,3 -61.5,3 C-63.15700149536133,3 -64.5,1.656999945640564 -64.5,0z"></path></g><g opacity="1" transform="matrix(1,0,0,1,64.75,33.25)"><path fill="rgb(230,235,246)" fill-opacity="1" d=" M-64.5,0 C-64.5,-1.656000018119812 -63.15700149536133,-3 -61.5,-3 C-61.5,-3 61.5,-3 61.5,-3 C63.15599822998047,-3 64.5,-1.656000018119812 64.5,0 C64.5,1.656999945640564 63.15599822998047,3 61.5,3 C61.5,3 -61.5,3 -61.5,3 C-63.15700149536133,3 -64.5,1.656999945640564 -64.5,0z"></path></g></g><g transform="matrix(0.6652100086212158,0,0,0.6652100086212158,466.00299072265625,311.87200927734375)" opacity="1" style="display: block;"><g opacity="1" transform="matrix(1,0,0,1,0,0)"><path stroke-linecap="butt" stroke-linejoin="miter" fill-opacity="0" stroke-miterlimit="4" stroke="rgb(168,234,6)" stroke-opacity="1" stroke-width="1.5" d=" M-224.43800354003906,-195.56300354003906 C-224.43800354003906,-195.56300354003906 -224.375,45.375 -224.375,45.375 C-224.375,45.375 17.375,45.375 17.375,45.375 C17.375,45.375 17.375,-195.5 17.375,-195.5 C17.375,-195.5 -224.43800354003906,-195.56300354003906 -224.43800354003906,-195.56300354003906z"></path></g></g><g transform="matrix(0,-0.9978100061416626,0.9978100061416626,0,381.5732421875,512.4459838867188)" opacity="1" style="display: block;"><g opacity="1" transform="matrix(1,0,0,1,332.44000244140625,96.91300201416016)"><path fill="rgb(168,234,6)" fill-opacity="1" d=" M5.0879998207092285,5.0879998207092285 C5.0879998207092285,5.0879998207092285 -5.0879998207092285,5.0879998207092285 -5.0879998207092285,5.0879998207092285 C-5.0879998207092285,5.0879998207092285 -5.0879998207092285,-5.0879998207092285 -5.0879998207092285,-5.0879998207092285 C-5.0879998207092285,-5.0879998207092285 5.0879998207092285,-5.0879998207092285 5.0879998207092285,-5.0879998207092285 C5.0879998207092285,-5.0879998207092285 5.0879998207092285,5.0879998207092285 5.0879998207092285,5.0879998207092285z"></path></g><g opacity="1" transform="matrix(1,0,0,1,332.44000244140625,96.91400146484375)"><path fill="rgb(168,234,6)" fill-opacity="1" d=" M4.089000225067139,4.0879998207092285 C4.089000225067139,4.0879998207092285 -4.0879998207092285,4.0879998207092285 -4.0879998207092285,4.0879998207092285 C-4.0879998207092285,4.0879998207092285 -4.0879998207092285,-4.089000225067139 -4.0879998207092285,-4.089000225067139 C-4.0879998207092285,-4.089000225067139 4.089000225067139,-4.089000225067139 4.089000225067139,-4.089000225067139 C4.089000225067139,-4.089000225067139 4.089000225067139,4.0879998207092285 4.089000225067139,4.0879998207092285z M-5.0879998207092285,-5.0879998207092285 M-5.0879998207092285,5.0879998207092285 C-5.0879998207092285,5.0879998207092285 5.0879998207092285,5.0879998207092285 5.0879998207092285,5.0879998207092285 C5.0879998207092285,5.0879998207092285 5.0879998207092285,-5.0879998207092285 5.0879998207092285,-5.0879998207092285 C5.0879998207092285,-5.0879998207092285 -5.0879998207092285,-5.0879998207092285 -5.0879998207092285,-5.0879998207092285 C-5.0879998207092285,-5.0879998207092285 -5.0879998207092285,5.0879998207092285 -5.0879998207092285,5.0879998207092285z"></path></g></g><g transform="matrix(0,-0.9978100061416626,0.9978100061416626,0,220.02978515625,673.989990234375)" opacity="1" style="display: block;"><g opacity="1" transform="matrix(1,0,0,1,332.44000244140625,258.8110046386719)"><path fill="rgb(168,234,6)" fill-opacity="1" d=" M5.0879998207092285,5.0879998207092285 C5.0879998207092285,5.0879998207092285 -5.0879998207092285,5.0879998207092285 -5.0879998207092285,5.0879998207092285 C-5.0879998207092285,5.0879998207092285 -5.0879998207092285,-5.0879998207092285 -5.0879998207092285,-5.0879998207092285 C-5.0879998207092285,-5.0879998207092285 5.0879998207092285,-5.0879998207092285 5.0879998207092285,-5.0879998207092285 C5.0879998207092285,-5.0879998207092285 5.0879998207092285,5.0879998207092285 5.0879998207092285,5.0879998207092285z"></path></g><g opacity="1" transform="matrix(1,0,0,1,332.4410095214844,258.81201171875)"><path fill="rgb(168,234,6)" fill-opacity="1" d=" M4.085999965667725,4.086999893188477 C4.085999965667725,4.086999893188477 -4.089000225067139,4.086999893188477 -4.089000225067139,4.086999893188477 C-4.089000225067139,4.086999893188477 -4.089000225067139,-4.0879998207092285 -4.089000225067139,-4.0879998207092285 C-4.089000225067139,-4.0879998207092285 4.085999965667725,-4.0879998207092285 4.085999965667725,-4.0879998207092285 C4.085999965667725,-4.0879998207092285 4.085999965667725,4.086999893188477 4.085999965667725,4.086999893188477z M-5.0879998207092285,-5.089000225067139 M-5.0879998207092285,5.0879998207092285 C-5.0879998207092285,5.0879998207092285 5.0879998207092285,5.0879998207092285 5.0879998207092285,5.0879998207092285 C5.0879998207092285,5.0879998207092285 5.0879998207092285,-5.0879998207092285 5.0879998207092285,-5.0879998207092285 C5.0879998207092285,-5.0879998207092285 -5.0879998207092285,-5.0879998207092285 -5.0879998207092285,-5.0879998207092285 C-5.0879998207092285,-5.0879998207092285 -5.0879998207092285,5.0879998207092285 -5.0879998207092285,5.0879998207092285z"></path></g></g><g transform="matrix(0,-0.9978100061416626,0.9978100061416626,0,57.5657958984375,511.52655029296875)" opacity="1" style="display: block;"><g opacity="1" transform="matrix(1,0,0,1,169.6199951171875,258.8110046386719)"><path fill="rgb(168,234,6)" fill-opacity="1" d=" M5.0879998207092285,5.0879998207092285 C5.0879998207092285,5.0879998207092285 -5.0879998207092285,5.0879998207092285 -5.0879998207092285,5.0879998207092285 C-5.0879998207092285,5.0879998207092285 -5.0879998207092285,-5.0879998207092285 -5.0879998207092285,-5.0879998207092285 C-5.0879998207092285,-5.0879998207092285 5.0879998207092285,-5.0879998207092285 5.0879998207092285,-5.0879998207092285 C5.0879998207092285,-5.0879998207092285 5.0879998207092285,5.0879998207092285 5.0879998207092285,5.0879998207092285z"></path></g><g opacity="1" transform="matrix(1,0,0,1,169.6199951171875,258.81201171875)"><path fill="rgb(168,234,6)" fill-opacity="1" d=" M4.086999893188477,4.0879998207092285 C4.086999893188477,4.0879998207092285 -4.090000152587891,4.0879998207092285 -4.090000152587891,4.0879998207092285 C-4.090000152587891,4.0879998207092285 -4.090000152587891,-4.089000225067139 -4.090000152587891,-4.089000225067139 C-4.090000152587891,-4.089000225067139 4.086999893188477,-4.089000225067139 4.086999893188477,-4.089000225067139 C4.086999893188477,-4.089000225067139 4.086999893188477,4.0879998207092285 4.086999893188477,4.0879998207092285z M-5.0879998207092285,-5.089000225067139 C-5.0879998207092285,-5.089000225067139 -5.0879998207092285,5.089000225067139 -5.0879998207092285,5.089000225067139 C-5.0879998207092285,5.089000225067139 5.0879998207092285,5.089000225067139 5.0879998207092285,5.089000225067139 C5.0879998207092285,5.089000225067139 5.086999893188477,5.089000225067139 5.086999893188477,5.089000225067139 C5.086999893188477,5.089000225067139 5.0879998207092285,5.089000225067139 5.0879998207092285,5.089000225067139 C5.0879998207092285,5.089000225067139 5.0879998207092285,-5.089000225067139 5.0879998207092285,-5.089000225067139 C5.0879998207092285,-5.089000225067139 -5.0879998207092285,-5.089000225067139 -5.0879998207092285,-5.089000225067139z"></path></g></g><g transform="matrix(0,-0.9978100061416626,0.9978100061416626,0,219.11024475097656,349.9825439453125)" opacity="1" style="display: block;"><g opacity="1" transform="matrix(1,0,0,1,169.6199951171875,96.91300201416016)"><path fill="rgb(168,234,6)" fill-opacity="1" d=" M5.0879998207092285,5.0879998207092285 C5.0879998207092285,5.0879998207092285 -5.0879998207092285,5.0879998207092285 -5.0879998207092285,5.0879998207092285 C-5.0879998207092285,5.0879998207092285 -5.0879998207092285,-5.0879998207092285 -5.0879998207092285,-5.0879998207092285 C-5.0879998207092285,-5.0879998207092285 5.0879998207092285,-5.0879998207092285 5.0879998207092285,-5.0879998207092285 C5.0879998207092285,-5.0879998207092285 5.0879998207092285,5.0879998207092285 5.0879998207092285,5.0879998207092285z"></path></g><g opacity="1" transform="matrix(1,0,0,1,169.6199951171875,96.91300201416016)"><path fill="rgb(168,234,6)" fill-opacity="1" d=" M4.086999893188477,4.0879998207092285 C4.086999893188477,4.0879998207092285 -4.0879998207092285,4.0879998207092285 -4.0879998207092285,4.0879998207092285 C-4.0879998207092285,4.0879998207092285 -4.0879998207092285,-4.089000225067139 -4.0879998207092285,-4.089000225067139 C-4.0879998207092285,-4.089000225067139 4.086999893188477,-4.089000225067139 4.086999893188477,-4.089000225067139 C4.086999893188477,-4.089000225067139 4.086999893188477,4.0879998207092285 4.086999893188477,4.0879998207092285z M-5.0879998207092285,-5.0879998207092285 C-5.0879998207092285,-5.0879998207092285 -5.0879998207092285,5.0879998207092285 -5.0879998207092285,5.0879998207092285 C-5.0879998207092285,5.0879998207092285 5.0879998207092285,5.0879998207092285 5.0879998207092285,5.0879998207092285 C5.0879998207092285,5.0879998207092285 5.086999893188477,5.0879998207092285 5.086999893188477,5.0879998207092285 C5.086999893188477,5.0879998207092285 5.0879998207092285,5.0879998207092285 5.0879998207092285,5.0879998207092285 C5.0879998207092285,5.0879998207092285 5.0879998207092285,-5.0879998207092285 5.0879998207092285,-5.0879998207092285 C5.0879998207092285,-5.0879998207092285 -5.0879998207092285,-5.0879998207092285 -5.0879998207092285,-5.0879998207092285z"></path></g></g><g filter="url(#__lottie_element_552)" transform="matrix(0.9978100061416626,0,0,0.9978100061416626,146.56246948242188,84.03324890136719)" opacity="0.1" style="display: block;"><g opacity="1" transform="matrix(1,0,0,1,318.031005859375,68.03199768066406)"><path fill="rgb(127,127,127)" fill-opacity="1" d=" M-318.031005859375,68.03099822998047 C-318.031005859375,68.03099822998047 318.031005859375,68.03099822998047 318.031005859375,68.03099822998047 C318.031005859375,68.03099822998047 318.031005859375,-68.03199768066406 318.031005859375,-68.03199768066406 C318.031005859375,-68.03199768066406 -318.031005859375,-68.03199768066406 -318.031005859375,-68.03199768066406 C-318.031005859375,-68.03199768066406 -318.031005859375,68.03099822998047 -318.031005859375,68.03099822998047z"></path></g></g><g clip-path="url(#__lottie_element_544)" style="display: block;" transform="matrix(0.6652100086212158,0,0,0.6652100086212158,-172.5986328125,-47.341400146484375)" opacity="1"><g clip-path="url(#__lottie_element_545)"><g style="display: block;" transform="matrix(1.5,0,0,1.5,766.7100219726562,372.90399169921875)" opacity="1"><g opacity="1" transform="matrix(1,0,0,1,59.75,112.73699951171875)"><path fill="rgb(234,236,243)" fill-opacity="1" d=" M59.5,10.857999801635742 C59.5,10.857999801635742 -59.5,10.857999801635742 -59.5,10.857999801635742 C-59.5,10.857999801635742 -59.5,-10.857999801635742 -59.5,-10.857999801635742 C-59.5,-10.857999801635742 59.5,-10.857999801635742 59.5,-10.857999801635742 C59.5,-10.857999801635742 59.5,10.857999801635742 59.5,10.857999801635742z"></path></g><g opacity="1" transform="matrix(1,0,0,1,59.75,78.85800170898438)"><path fill="rgb(234,236,243)" fill-opacity="1" d=" M59.5,10.857999801635742 C59.5,10.857999801635742 -59.5,10.857999801635742 -59.5,10.857999801635742 C-59.5,10.857999801635742 -59.5,-10.857999801635742 -59.5,-10.857999801635742 C-59.5,-10.857999801635742 59.5,-10.857999801635742 59.5,-10.857999801635742 C59.5,-10.857999801635742 59.5,10.857999801635742 59.5,10.857999801635742z"></path></g><g opacity="1" transform="matrix(1,0,0,1,59.75,44.983001708984375)"><path fill="rgb(234,236,243)" fill-opacity="1" d=" M59.5,10.857999801635742 C59.5,10.857999801635742 -59.5,10.857999801635742 -59.5,10.857999801635742 C-59.5,10.857999801635742 -59.5,-10.857999801635742 -59.5,-10.857999801635742 C-59.5,-10.857999801635742 59.5,-10.857999801635742 59.5,-10.857999801635742 C59.5,-10.857999801635742 59.5,10.857999801635742 59.5,10.857999801635742z"></path></g><g opacity="1" transform="matrix(1,0,0,1,59.75,11.107999801635742)"><path fill="rgb(234,236,243)" fill-opacity="1" d=" M59.5,10.857999801635742 C59.5,10.857999801635742 -59.5,10.857999801635742 -59.5,10.857999801635742 C-59.5,10.857999801635742 -59.5,-10.857999801635742 -59.5,-10.857999801635742 C-59.5,-10.857999801635742 59.5,-10.857999801635742 59.5,-10.857999801635742 C59.5,-10.857999801635742 59.5,10.857999801635742 59.5,10.857999801635742z"></path></g></g></g></g><g clip-path="url(#__lottie_element_537)" style="display: block;" transform="matrix(0.6652100086212158,0,0,0.6652100086212158,-172.5986328125,-47.341400146484375)" opacity="1"><g clip-path="url(#__lottie_element_538)"><g style="display: block;" transform="matrix(1.5,0,0,1.5,766.7100219726562,372.90399169921875)" opacity="1"><g opacity="1" transform="matrix(1,0,0,1,59.75,112.73699951171875)"><path fill="rgb(234,236,243)" fill-opacity="1" d=" M59.5,10.857999801635742 C59.5,10.857999801635742 -59.5,10.857999801635742 -59.5,10.857999801635742 C-59.5,10.857999801635742 -59.5,-10.857999801635742 -59.5,-10.857999801635742 C-59.5,-10.857999801635742 59.5,-10.857999801635742 59.5,-10.857999801635742 C59.5,-10.857999801635742 59.5,10.857999801635742 59.5,10.857999801635742z"></path></g><g opacity="1" transform="matrix(1,0,0,1,59.75,78.85800170898438)"><path fill="rgb(234,236,243)" fill-opacity="1" d=" M59.5,10.857999801635742 C59.5,10.857999801635742 -59.5,10.857999801635742 -59.5,10.857999801635742 C-59.5,10.857999801635742 -59.5,-10.857999801635742 -59.5,-10.857999801635742 C-59.5,-10.857999801635742 59.5,-10.857999801635742 59.5,-10.857999801635742 C59.5,-10.857999801635742 59.5,10.857999801635742 59.5,10.857999801635742z"></path></g><g opacity="1" transform="matrix(1,0,0,1,59.75,44.983001708984375)"><path fill="rgb(234,236,243)" fill-opacity="1" d=" M59.5,10.857999801635742 C59.5,10.857999801635742 -59.5,10.857999801635742 -59.5,10.857999801635742 C-59.5,10.857999801635742 -59.5,-10.857999801635742 -59.5,-10.857999801635742 C-59.5,-10.857999801635742 59.5,-10.857999801635742 59.5,-10.857999801635742 C59.5,-10.857999801635742 59.5,10.857999801635742 59.5,10.857999801635742z"></path></g><g opacity="1" transform="matrix(1,0,0,1,59.75,11.107999801635742)"><path fill="rgb(234,236,243)" fill-opacity="1" d=" M59.5,10.857999801635742 C59.5,10.857999801635742 -59.5,10.857999801635742 -59.5,10.857999801635742 C-59.5,10.857999801635742 -59.5,-10.857999801635742 -59.5,-10.857999801635742 C-59.5,-10.857999801635742 59.5,-10.857999801635742 59.5,-10.857999801635742 C59.5,-10.857999801635742 59.5,10.857999801635742 59.5,10.857999801635742z"></path></g></g></g></g><g clip-path="url(#__lottie_element_530)" transform="matrix(0.6652100086212158,0,0,0.6652100086212158,-172.5986328125,-47.341400146484375)" opacity="0.9999983826660627" style="display: block;"><g clip-path="url(#__lottie_element_531)"><g transform="matrix(1.5,0,0,1.5,766.7100219726562,372.90399169921875)" opacity="1" style="display: block;"><g opacity="1" transform="matrix(1,0,0,1,59.75,112.73699951171875)"><path fill="rgb(234,236,243)" fill-opacity="1" d=" M59.5,10.857999801635742 C59.5,10.857999801635742 -59.5,10.857999801635742 -59.5,10.857999801635742 C-59.5,10.857999801635742 -59.5,-10.857999801635742 -59.5,-10.857999801635742 C-59.5,-10.857999801635742 59.5,-10.857999801635742 59.5,-10.857999801635742 C59.5,-10.857999801635742 59.5,10.857999801635742 59.5,10.857999801635742z"></path></g><g opacity="1" transform="matrix(1,0,0,1,59.75,78.85800170898438)"><path fill="rgb(234,236,243)" fill-opacity="1" d=" M59.5,10.857999801635742 C59.5,10.857999801635742 -59.5,10.857999801635742 -59.5,10.857999801635742 C-59.5,10.857999801635742 -59.5,-10.857999801635742 -59.5,-10.857999801635742 C-59.5,-10.857999801635742 59.5,-10.857999801635742 59.5,-10.857999801635742 C59.5,-10.857999801635742 59.5,10.857999801635742 59.5,10.857999801635742z"></path></g><g opacity="1" transform="matrix(1,0,0,1,59.75,44.983001708984375)"><path fill="rgb(234,236,243)" fill-opacity="1" d=" M59.5,10.857999801635742 C59.5,10.857999801635742 -59.5,10.857999801635742 -59.5,10.857999801635742 C-59.5,10.857999801635742 -59.5,-10.857999801635742 -59.5,-10.857999801635742 C-59.5,-10.857999801635742 59.5,-10.857999801635742 59.5,-10.857999801635742 C59.5,-10.857999801635742 59.5,10.857999801635742 59.5,10.857999801635742z"></path></g><g opacity="1" transform="matrix(1,0,0,1,59.75,11.107999801635742)"><path fill="rgb(234,236,243)" fill-opacity="1" d=" M59.5,10.857999801635742 C59.5,10.857999801635742 -59.5,10.857999801635742 -59.5,10.857999801635742 C-59.5,10.857999801635742 -59.5,-10.857999801635742 -59.5,-10.857999801635742 C-59.5,-10.857999801635742 59.5,-10.857999801635742 59.5,-10.857999801635742 C59.5,-10.857999801635742 59.5,10.857999801635742 59.5,10.857999801635742z"></path></g></g></g></g><g clip-path="url(#__lottie_element_523)" transform="matrix(0.6652100086212158,0,0,0.6652100086212158,-172.5986328125,-47.341400146484375)" opacity="0.9999985367059508" style="display: block;"><g clip-path="url(#__lottie_element_524)"><g transform="matrix(1.5,0,0,1.5,766.7100219726562,372.90399169921875)" opacity="1" style="display: block;"><g opacity="1" transform="matrix(1,0,0,1,59.75,112.73699951171875)"><path fill="rgb(234,236,243)" fill-opacity="1" d=" M59.5,10.857999801635742 C59.5,10.857999801635742 -59.5,10.857999801635742 -59.5,10.857999801635742 C-59.5,10.857999801635742 -59.5,-10.857999801635742 -59.5,-10.857999801635742 C-59.5,-10.857999801635742 59.5,-10.857999801635742 59.5,-10.857999801635742 C59.5,-10.857999801635742 59.5,10.857999801635742 59.5,10.857999801635742z"></path></g><g opacity="1" transform="matrix(1,0,0,1,59.75,78.85800170898438)"><path fill="rgb(234,236,243)" fill-opacity="1" d=" M59.5,10.857999801635742 C59.5,10.857999801635742 -59.5,10.857999801635742 -59.5,10.857999801635742 C-59.5,10.857999801635742 -59.5,-10.857999801635742 -59.5,-10.857999801635742 C-59.5,-10.857999801635742 59.5,-10.857999801635742 59.5,-10.857999801635742 C59.5,-10.857999801635742 59.5,10.857999801635742 59.5,10.857999801635742z"></path></g><g opacity="1" transform="matrix(1,0,0,1,59.75,44.983001708984375)"><path fill="rgb(234,236,243)" fill-opacity="1" d=" M59.5,10.857999801635742 C59.5,10.857999801635742 -59.5,10.857999801635742 -59.5,10.857999801635742 C-59.5,10.857999801635742 -59.5,-10.857999801635742 -59.5,-10.857999801635742 C-59.5,-10.857999801635742 59.5,-10.857999801635742 59.5,-10.857999801635742 C59.5,-10.857999801635742 59.5,10.857999801635742 59.5,10.857999801635742z"></path></g><g opacity="1" transform="matrix(1,0,0,1,59.75,11.107999801635742)"><path fill="rgb(234,236,243)" fill-opacity="1" d=" M59.5,10.857999801635742 C59.5,10.857999801635742 -59.5,10.857999801635742 -59.5,10.857999801635742 C-59.5,10.857999801635742 -59.5,-10.857999801635742 -59.5,-10.857999801635742 C-59.5,-10.857999801635742 59.5,-10.857999801635742 59.5,-10.857999801635742 C59.5,-10.857999801635742 59.5,10.857999801635742 59.5,10.857999801635742z"></path></g></g></g></g><g clip-path="url(#__lottie_element_516)" style="display: none;"><g clip-path="url(#__lottie_element_517)"><g style="display: none;"><g><path></path></g><g><path></path></g><g><path></path></g><g><path></path></g></g></g></g><g clip-path="url(#__lottie_element_509)" style="display: none;"><g clip-path="url(#__lottie_element_510)"><g style="display: none;"><g><path></path></g><g><path></path></g><g><path></path></g><g><path></path></g></g></g></g><g clip-path="url(#__lottie_element_502)" style="display: none;"><g clip-path="url(#__lottie_element_503)"><g style="display: none;"><g><path></path></g><g><path></path></g><g><path></path></g><g><path></path></g></g></g></g><g clip-path="url(#__lottie_element_495)" style="display: none;"><g clip-path="url(#__lottie_element_496)"><g style="display: none;"><g><path></path></g><g><path></path></g><g><path></path></g><g><path></path></g></g></g></g><g clip-path="url(#__lottie_element_488)" style="display: none;"><g clip-path="url(#__lottie_element_489)"><g style="display: none;"><g><path></path></g><g><path></path></g><g><path></path></g><g><path></path></g></g></g></g><g clip-path="url(#__lottie_element_481)" style="display: none;"><g clip-path="url(#__lottie_element_482)"><g style="display: none;"><g><path></path></g><g><path></path></g><g><path></path></g><g><path></path></g></g></g></g><g clip-path="url(#__lottie_element_474)" style="display: none;"><g clip-path="url(#__lottie_element_475)"><g style="display: none;"><g><path></path></g><g><path></path></g><g><path></path></g><g><path></path></g></g></g></g><g clip-path="url(#__lottie_element_467)" style="display: none;"><g clip-path="url(#__lottie_element_468)"><g style="display: none;"><g><path></path></g><g><path></path></g><g><path></path></g><g><path></path></g></g></g></g><g clip-path="url(#__lottie_element_460)" style="display: none;"><g clip-path="url(#__lottie_element_461)"><g style="display: none;"><g><path></path></g><g><path></path></g><g><path></path></g><g><path></path></g></g></g></g><g clip-path="url(#__lottie_element_453)" style="display: none;"><g clip-path="url(#__lottie_element_454)"><g style="display: none;"><g><path></path></g><g><path></path></g><g><path></path></g><g><path></path></g></g></g></g><g clip-path="url(#__lottie_element_446)" style="display: none;"><g clip-path="url(#__lottie_element_447)"><g style="display: none;"><g><path></path></g><g><path></path></g><g><path></path></g><g><path></path></g></g></g></g><g clip-path="url(#__lottie_element_439)" style="display: none;"><g clip-path="url(#__lottie_element_440)"><g style="display: none;"><g><path></path></g><g><path></path></g><g><path></path></g><g><path></path></g></g></g></g><g filter="url(#__lottie_element_437)" style="display: block;" transform="matrix(0.7417700290679932,0,0,0.7417700290679932,203.87615966796875,344.6911315917969)" opacity="0.09309477555064648"><g opacity="1" transform="matrix(1,0,0,1,74.10900115966797,74.1050033569336)"><path fill="rgb(127,127,127)" fill-opacity="1" d=" M-74.10900115966797,74.10600280761719 C-74.10900115966797,74.10600280761719 74.11000061035156,74.10600280761719 74.11000061035156,74.10600280761719 C74.11000061035156,74.10600280761719 74.11000061035156,-74.1050033569336 74.11000061035156,-74.1050033569336 C74.11000061035156,-74.1050033569336 -74.10900115966797,-74.1050033569336 -74.10900115966797,-74.1050033569336 C-74.10900115966797,-74.1050033569336 -74.10900115966797,74.10600280761719 -74.10900115966797,74.10600280761719z"></path></g></g><g filter="url(#__lottie_element_434)" style="display: block;" transform="matrix(0.7417700290679932,0,0,0.7417700290679932,203.87615966796875,276.8401184082031)" opacity="0.09235967337385567"><g opacity="1" transform="matrix(1,0,0,1,74.10900115966797,74.1050033569336)"><path fill="rgb(127,127,127)" fill-opacity="1" d=" M-74.10900115966797,74.1050033569336 C-74.10900115966797,74.1050033569336 74.10900115966797,74.1050033569336 74.10900115966797,74.1050033569336 C74.10900115966797,74.1050033569336 74.10900115966797,-74.1050033569336 74.10900115966797,-74.1050033569336 C74.10900115966797,-74.1050033569336 -74.10900115966797,-74.1050033569336 -74.10900115966797,-74.1050033569336 C-74.10900115966797,-74.1050033569336 -74.10900115966797,74.1050033569336 -74.10900115966797,74.1050033569336z"></path></g></g><g filter="url(#__lottie_element_431)" transform="matrix(0.7417700290679932,0,0,0.7417700290679932,203.87615966796875,208.9891357421875)" opacity="0.09165058248427226" style="display: block;"><g opacity="1" transform="matrix(1,0,0,1,74.11000061035156,74.1050033569336)"><path fill="rgb(127,127,127)" fill-opacity="1" d=" M-74.11000061035156,74.1050033569336 C-74.11000061035156,74.1050033569336 74.10900115966797,74.1050033569336 74.10900115966797,74.1050033569336 C74.10900115966797,74.1050033569336 74.10900115966797,-74.1050033569336 74.10900115966797,-74.1050033569336 C74.10900115966797,-74.1050033569336 -74.11000061035156,-74.1050033569336 -74.11000061035156,-74.1050033569336 C-74.11000061035156,-74.1050033569336 -74.11000061035156,74.1050033569336 -74.11000061035156,74.1050033569336z"></path></g></g><g clip-path="url(#__lottie_element_417)" transform="matrix(0.6652100086212158,0,0,0.6652100086212158,-172.59719848632812,-47.34149169921875)" opacity="1" style="display: block;"><g clip-path="url(#__lottie_element_418)"><g transform="matrix(1.5,0,0,1.5,607.708984375,619.8519897460938)" opacity="1" style="display: block;"><g opacity="1" transform="matrix(1,0,0,1,27.25,27.25)"><path fill="rgb(255,255,255)" fill-opacity="1" d=" M-27,-17 C-27,-22.52199935913086 -22.523000717163086,-27 -17,-27 C-17,-27 17,-27 17,-27 C22.523000717163086,-27 27,-22.52199935913086 27,-17 C27,-17 27,17 27,17 C27,22.523000717163086 22.523000717163086,27 17,27 C17,27 -17,27 -17,27 C-22.523000717163086,27 -27,22.523000717163086 -27,17 C-27,17 -27,-17 -27,-17z"></path></g></g><g mask="url(#__lottie_element_420_1)" style="display: block;"><g transform="matrix(1.5,0,0,1.5,607.708984375,619.8519897460938)" opacity="1"><g opacity="1" transform="matrix(1,0,0,1,27.75,33.05099868774414)"><path fill="rgb(0,0,0)" fill-opacity="1" d=" M2.7130000591278076,-6.756999969482422 C3.8320000171661377,-8.199999809265137 6.0320000648498535,-8.130000114440918 7.060999870300293,-6.646999835968018 C7.060999870300293,-6.646999835968018 7.123000144958496,-6.552999973297119 7.123000144958496,-6.552999973297119 C7.123000144958496,-6.552999973297119 16.5,8.199999809265137 16.5,8.199999809265137 C16.5,8.199999809265137 -16.5,8.199999809265137 -16.5,8.199999809265137 C-16.5,8.199999809265137 -10.09000015258789,-1.684000015258789 -10.09000015258789,-1.684000015258789 C-9.17300033569336,-3.0969998836517334 -7.195000171661377,-3.322999954223633 -5.978000164031982,-2.180000066757202 C-5.978000164031982,-2.180000066757202 -5.8979997634887695,-2.1019999980926514 -5.8979997634887695,-2.1019999980926514 C-5.8979997634887695,-2.1019999980926514 -3.1019999980926514,0.7459999918937683 -3.1019999980926514,0.7459999918937683 C-3.1019999980926514,0.7459999918937683 2.7130000591278076,-6.756999969482422 2.7130000591278076,-6.756999969482422z"></path></g><g opacity="1" transform="matrix(1,0,0,1,18.750999450683594,18.75)"><path fill="rgb(0,0,0)" fill-opacity="1" d=" M0,-4.5 C2.4839999675750732,-4.5 4.5,-2.484999895095825 4.5,0 C4.5,2.484999895095825 2.4839999675750732,4.5 0,4.5 C-2.484999895095825,4.5 -4.5,2.484999895095825 -4.5,0 C-4.5,-2.484999895095825 -2.484999895095825,-4.5 0,-4.5z"></path></g></g></g></g></g><g clip-path="url(#__lottie_element_404)" transform="matrix(0.6652100086212158,0,0,0.6652100086212158,-172.59719848632812,-47.341094970703125)" opacity="1" style="display: block;"><g clip-path="url(#__lottie_element_405)"><g transform="matrix(1.5,0,0,1.5,607.708984375,517.8519897460938)" opacity="1" style="display: block;"><g opacity="1" transform="matrix(1,0,0,1,27.25,27.25)"><path fill="rgb(255,255,255)" fill-opacity="1" d=" M-27,-17 C-27,-22.52199935913086 -22.523000717163086,-27 -17,-27 C-17,-27 17,-27 17,-27 C22.523000717163086,-27 27,-22.52199935913086 27,-17 C27,-17 27,17 27,17 C27,22.523000717163086 22.523000717163086,27 17,27 C17,27 -17,27 -17,27 C-22.523000717163086,27 -27,22.523000717163086 -27,17 C-27,17 -27,-17 -27,-17z"></path></g></g><g mask="url(#__lottie_element_407_1)" style="display: block;"><g transform="matrix(1.5,0,0,1.5,607.708984375,517.8519897460938)" opacity="1"><g opacity="1" transform="matrix(1,0,0,1,27.25200080871582,31.43400001525879)"><path fill="rgb(0,0,0)" fill-opacity="1" d=" M8.182000160217285,-9 C8.182000160217285,-9 6.979000091552734,8.270999908447266 6.979000091552734,8.270999908447266 C6.953000068664551,8.661999702453613 6.658999919891357,8.968999862670898 6.295000076293945,8.998000144958496 C6.295000076293945,8.998000144958496 6.236999988555908,9 6.236999988555908,9 C6.236999988555908,9 -6.236999988555908,9 -6.236999988555908,9 C-6.607999801635742,9 -6.921000003814697,8.71399974822998 -6.9730000495910645,8.331999778747559 C-6.9730000495910645,8.331999778747559 -6.979000091552734,8.270999908447266 -6.979000091552734,8.270999908447266 C-6.979000091552734,8.270999908447266 -8.182000160217285,-9 -8.182000160217285,-9 C-8.182000160217285,-9 8.182000160217285,-9 8.182000160217285,-9z"></path></g><g opacity="1" transform="matrix(1,0,0,1,27.25,17.933000564575195)"><path fill="rgb(0,0,0)" fill-opacity="1" d=" M1.9249999523162842,-3.681999921798706 C3.428999900817871,-3.681999921798706 4.6579999923706055,-2.4119999408721924 4.705999851226807,-0.8330000042915344 C4.705999851226807,-0.8330000042915344 4.708000183105469,-0.7369999885559082 4.708000183105469,-0.7369999885559082 C4.708000183105469,-0.7369999885559082 4.708000183105469,-0.5830000042915344 4.708000183105469,-0.5830000042915344 C4.708000183105469,-0.5830000042915344 7.482999801635742,-0.5830000042915344 7.482999801635742,-0.5830000042915344 C8.293999671936035,-0.5830000042915344 8.956999778747559,0.09099999815225601 8.998000144958496,0.9399999976158142 C8.998000144958496,0.9399999976158142 9,1.0219999551773071 9,1.0219999551773071 C9,1.0219999551773071 9,3.1459999084472656 9,3.1459999084472656 C9,3.421999931335449 8.800999641418457,3.6519999504089355 8.545999526977539,3.678999900817871 C8.545999526977539,3.678999900817871 8.494000434875488,3.681999921798706 8.494000434875488,3.681999921798706 C8.494000434875488,3.681999921798706 -8.494999885559082,3.681999921798706 -8.494999885559082,3.681999921798706 C-8.756999969482422,3.681999921798706 -8.970999717712402,3.4709999561309814 -8.998000144958496,3.2019999027252197 C-8.998000144958496,3.2019999027252197 -9,3.1459999084472656 -9,3.1459999084472656 C-9,3.1459999084472656 -9,1.0219999551773071 -9,1.0219999551773071 C-9,0.164000004529953 -8.362000465393066,-0.5379999876022339 -7.559999942779541,-0.5809999704360962 C-7.559999942779541,-0.5809999704360962 -7.48199987411499,-0.5830000042915344 -7.48199987411499,-0.5830000042915344 C-7.48199987411499,-0.5830000042915344 -4.709000110626221,-0.5830000042915344 -4.709000110626221,-0.5830000042915344 C-4.709000110626221,-0.5830000042915344 -4.709000110626221,-0.7369999885559082 -4.709000110626221,-0.7369999885559082 C-4.709000110626221,-2.3269999027252197 -3.509999990463257,-3.628000020980835 -2.0169999599456787,-3.680000066757202 C-2.0169999599456787,-3.680000066757202 -1.9270000457763672,-3.681999921798706 -1.9270000457763672,-3.681999921798706 C-1.9270000457763672,-3.681999921798706 1.9249999523162842,-3.681999921798706 1.9249999523162842,-3.681999921798706z"></path></g></g></g></g></g><g clip-path="url(#__lottie_element_391)" transform="matrix(0.6652100086212158,0,0,0.6652100086212158,-172.59719848632812,-47.34027099609375)" opacity="1" style="display: block;"><g clip-path="url(#__lottie_element_392)"><g transform="matrix(1.5,0,0,1.5,607.708984375,415.85198974609375)" opacity="1" style="display: block;"><g opacity="1" transform="matrix(1,0,0,1,27.25,27.25)"><path fill="rgb(255,255,255)" fill-opacity="1" d=" M-27,-17 C-27,-22.52199935913086 -22.523000717163086,-27 -17,-27 C-17,-27 17,-27 17,-27 C22.523000717163086,-27 27,-22.52199935913086 27,-17 C27,-17 27,17 27,17 C27,22.523000717163086 22.523000717163086,27 17,27 C17,27 -17,27 -17,27 C-22.523000717163086,27 -27,22.523000717163086 -27,17 C-27,17 -27,-17 -27,-17z"></path></g></g><g mask="url(#__lottie_element_394_1)" style="display: block;"><g transform="matrix(1.5,0,0,1.5,607.708984375,415.85198974609375)" opacity="1"><g opacity="1" transform="matrix(1,0,0,1,27.750999450683594,27.75)"><path fill="rgb(0,0,0)" fill-opacity="1" d=" M10.614999771118164,-11.5 C10.614999771118164,-11.5 -10.616000175476074,-11.5 -10.616000175476074,-11.5 C-11.104999542236328,-11.5 -11.5,-11.104000091552734 -11.5,-10.614999771118164 C-11.5,-10.614999771118164 -11.5,-3.243000030517578 -11.5,-3.243000030517578 C-11.5,-2.753999948501587 -11.104999542236328,-2.3580000400543213 -10.616000175476074,-2.3580000400543213 C-10.616000175476074,-2.3580000400543213 -7.666999816894531,-2.3580000400543213 -7.666999816894531,-2.3580000400543213 C-7.178999900817871,-2.3580000400543213 -6.7820000648498535,-2.753999948501587 -6.7820000648498535,-3.243000030517578 C-6.7820000648498535,-3.243000030517578 -6.7820000648498535,-5.895999908447266 -6.7820000648498535,-5.895999908447266 C-6.7820000648498535,-5.895999908447266 -3.24399995803833,-5.895999908447266 -3.24399995803833,-5.895999908447266 C-3.24399995803833,-5.895999908447266 -3.24399995803833,5.896999835968018 -3.24399995803833,5.896999835968018 C-3.24399995803833,5.896999835968018 -5.8979997634887695,5.896999835968018 -5.8979997634887695,5.896999835968018 C-6.38700008392334,5.896999835968018 -6.7820000648498535,6.294000148773193 -6.7820000648498535,6.7820000648498535 C-6.7820000648498535,6.7820000648498535 -6.7820000648498535,10.616000175476074 -6.7820000648498535,10.616000175476074 C-6.7820000648498535,11.104000091552734 -6.38700008392334,11.5 -5.8979997634887695,11.5 C-5.8979997634887695,11.5 5.895999908447266,11.5 5.895999908447266,11.5 C6.386000156402588,11.5 6.781000137329102,11.104000091552734 6.781000137329102,10.616000175476074 C6.781000137329102,10.616000175476074 6.781000137329102,6.7820000648498535 6.781000137329102,6.7820000648498535 C6.781000137329102,6.294000148773193 6.386000156402588,5.896999835968018 5.895999908447266,5.896999835968018 C5.895999908447266,5.896999835968018 3.243000030517578,5.896999835968018 3.243000030517578,5.896999835968018 C3.243000030517578,5.896999835968018 3.243000030517578,-5.895999908447266 3.243000030517578,-5.895999908447266 C3.243000030517578,-5.895999908447266 6.781000137329102,-5.895999908447266 6.781000137329102,-5.895999908447266 C6.781000137329102,-5.895999908447266 6.781000137329102,-3.243000030517578 6.781000137329102,-3.243000030517578 C6.781000137329102,-2.753999948501587 7.177000045776367,-2.3580000400543213 7.665999889373779,-2.3580000400543213 C7.665999889373779,-2.3580000400543213 10.614999771118164,-2.3580000400543213 10.614999771118164,-2.3580000400543213 C11.102999687194824,-2.3580000400543213 11.5,-2.753999948501587 11.5,-3.243000030517578 C11.5,-3.243000030517578 11.5,-10.614999771118164 11.5,-10.614999771118164 C11.5,-11.104000091552734 11.102999687194824,-11.5 10.614999771118164,-11.5z"></path></g></g></g></g></g></g></svg>